<svg width="100" height="100" viewBox="0 0 100 100" fill="none" xmlns="http://www.w3.org/2000/svg">
<g id="Group 4">
<g id="Rectangle">
<g id="Mask" filter="url(#filter0_d_0_136)">
<circle cx="50" cy="35" r="20" fill="#10D8C4"/>
</g>
<mask id="mask0_0_136" style="mask-type:luminance" maskUnits="userSpaceOnUse" x="30" y="15" width="40" height="40">
<circle id="Mask_2" cx="50" cy="35" r="20" fill="white"/>
</mask>
<g mask="url(#mask0_0_136)">
</g>
</g>
<g id="Group 3">
<path id="Path" fill-rule="evenodd" clip-rule="evenodd" d="M56.7348 30.8794C56.1174 30.2105 55 30.6473 55 31.5577V39.4423C55 40.3527 56.1174 40.7895 56.7348 40.1206L60.3739 36.1783C60.7275 35.7952 60.7275 35.2048 60.3739 34.8217L56.7348 30.8794Z" fill="#80FFF3"/>
<path id="Path Copy" fill-rule="evenodd" clip-rule="evenodd" d="M43.2652 30.8794C43.8826 30.2105 45 30.6473 45 31.5577V39.4423C45 40.3527 43.8826 40.7895 43.2652 40.1206L39.6261 36.1783C39.2725 35.7952 39.2725 35.2048 39.6261 34.8217L43.2652 30.8794Z" fill="#80FFF3"/>
</g>
</g>
<defs>
<filter id="filter0_d_0_136" x="0" y="0" width="100" height="100" filterUnits="userSpaceOnUse" color-interpolation-filters="sRGB">
<feFlood flood-opacity="0" result="BackgroundImageFix"/>
<feColorMatrix in="SourceAlpha" type="matrix" values="0 0 0 0 0 0 0 0 0 0 0 0 0 0 0 0 0 0 127 0" result="hardAlpha"/>
<feOffset dy="15"/>
<feGaussianBlur stdDeviation="15"/>
<feColorMatrix type="matrix" values="0 0 0 0 0 0 0 0 0 1 0 0 0 0 0.905028 0 0 0 0.6 0"/>
<feBlend mode="normal" in2="BackgroundImageFix" result="effect1_dropShadow_0_136"/>
<feBlend mode="normal" in="SourceGraphic" in2="effect1_dropShadow_0_136" result="shape"/>
</filter>
</defs>
</svg>
